HIERARCHY
ROOT Hips
{
	OFFSET 0.000000 0.000000 0.000000
	CHANNELS 6 Xposition Yposition Zposition Zrotation Yrotation Xrotation 
	JOINT LHipJoint
	{
		OFFSET 0.000000 0.000000 0.000000
		CHANNELS 3 Zrotation Yrotation Xrotation
		JOINT LeftUpLeg
		{
			OFFSET 1.363060 -1.794630 0.839290
			CHANNELS 3 Zrotation Yrotation Xrotation
			JOINT LeftLeg
			{
				OFFSET 2.448110 -6.726130 0.000000
				CHANNELS 3 Zrotation Yrotation Xrotation
				JOINT LeftFoot
				{
					OFFSET 2.562200 -7.039590 0.000000
					CHANNELS 3 Zrotation Yrotation Xrotation
					JOINT LeftToeBase
					{
						OFFSET 0.157640 -0.433110 2.322550
						CHANNELS 3 Zrotation Yrotation Xrotation
						End Site
						{
							OFFSET 0.000000 0.000000 0.000000
						}
					}
				}
			}
		}
	}
	JOINT RHipJoint
	{
		OFFSET 0.000000 0.000000 0.000000
		CHANNELS 3 Zrotation Yrotation Xrotation
		JOINT RightUpLeg
		{
			OFFSET -1.305520 -1.794630 0.839290
			CHANNELS 3 Zrotation Yrotation Xrotation
			JOINT RightLeg
			{
				OFFSET -2.542530 -6.985550 0.000000
				CHANNELS 3 Zrotation Yrotation Xrotation
				JOINT RightFoot
				{
					OFFSET -2.568260 -7.056230 0.000000
					CHANNELS 3 Zrotation Yrotation Xrotation
					JOINT RightToeBase
					{
						OFFSET -0.164730 -0.452590 2.363150
						CHANNELS 3 Zrotation Yrotation Xrotation
						End Site
						{
							OFFSET 0.000000 0.000000 0.000000
						}
					}
				}
			}
		}
	}
	JOINT LowerBack
	{
		OFFSET 0.000000 0.000000 0.000000
		CHANNELS 3 Zrotation Yrotation Xrotation
		JOINT Spine
		{
			OFFSET 0.028270 2.035590 -0.193380
			CHANNELS 3 Zrotation Yrotation Xrotation
			JOINT Spine1
			{
				OFFSET 0.056720 2.048850 -0.042750
				CHANNELS 3 Zrotation Yrotation Xrotation
				JOINT Neck
				{
					OFFSET 0.000000 0.000000 0.000000
					CHANNELS 3 Zrotation Yrotation Xrotation
					JOINT Neck1
					{
						OFFSET -0.054170 1.746240 0.172020
						CHANNELS 3 Zrotation Yrotation Xrotation
						JOINT Head
						{
							OFFSET 0.104070 1.761360 -0.123970
							CHANNELS 3 Zrotation Yrotation Xrotation
							End Site
							{
								OFFSET 0.000000 0.000000 0.000000
							}
						}
					}
				}
				JOINT LeftShoulder
				{
					OFFSET 0.000000 0.000000 0.000000
					CHANNELS 3 Zrotation Yrotation Xrotation
					JOINT LeftArm
					{
						OFFSET 3.362410 1.200890 -0.311210
						CHANNELS 3 Zrotation Yrotation Xrotation
						JOINT LeftForeArm
						{
							OFFSET 4.983000 -0.000000 -0.000000
							CHANNELS 3 Zrotation Yrotation Xrotation
							JOINT LeftHand
							{
								OFFSET 3.483560 -0.000000 -0.000000
								CHANNELS 3 Zrotation Yrotation Xrotation
								JOINT LeftFingerBase
								{
									OFFSET 0.000000 0.000000 0.000000
									CHANNELS 3 Zrotation Yrotation Xrotation
									JOINT LeftHandIndex1
									{
										OFFSET 0.715260 -0.000000 -0.000000
										CHANNELS 3 Zrotation Yrotation Xrotation
										End Site
										{
											OFFSET 0.000000 0.000000 0.000000
										}
									}
								}
								JOINT LThumb
								{
									OFFSET 0.000000 0.000000 0.000000
									CHANNELS 3 Zrotation Yrotation Xrotation
									End Site
									{
										OFFSET 0.000000 0.000000 0.000000
									}
								}
							}
						}
					}
				}
				JOINT RightShoulder
				{
					OFFSET 0.000000 0.000000 0.000000
					CHANNELS 3 Zrotation Yrotation Xrotation
					JOINT RightArm
					{
						OFFSET -3.136600 1.374050 -0.404650
						CHANNELS 3 Zrotation Yrotation Xrotation
						JOINT RightForeArm
						{
							OFFSET -5.241900 -0.000000 -0.000000
							CHANNELS 3 Zrotation Yrotation Xrotation
							JOINT RightHand
							{
								OFFSET -3.444170 -0.000000 -0.000000
								CHANNELS 3 Zrotation Yrotation Xrotation
								JOINT RightFingerBase
								{
									OFFSET 0.000000 0.000000 0.000000
									CHANNELS 3 Zrotation Yrotation Xrotation
									JOINT RightHandIndex1
									{
										OFFSET -0.622530 -0.000000 -0.000000
										CHANNELS 3 Zrotation Yrotation Xrotation
										End Site
										{
											OFFSET 0.000000 0.000000 0.000000
										}
									}
								}
								JOINT RThumb
								{
									OFFSET 0.000000 0.000000 0.000000
									CHANNELS 3 Zrotation Yrotation Xrotation
									End Site
									{
										OFFSET 0.000000 0.000000 0.000000
									}
								}
							}
						}
					}
				}
			}
		}
	}
}
MOTION
Frames: 4
Frame Time: 0.008333
-11.190682 16.796959 -1.192661 -22.926053 85.029693 -4.237554 -9.184607 -0.332866 2.027336 -7.266974 -5.845902 -45.397326 -1.297428 1.018703 26.266335 1.252485 6.668635 1.412090 1.429900 -0.000000 -31.068200 10.470609 -2.006451 -3.455082 3.244805 -10.295613 -4.733029 1.951075 -1.750130 25.719110 0.878456 9.536156 2.705023 1.342500 -0.000000 -87.143400 -2.538423 0.658054 2.719966 -1.170314 0.834312 -2.231238 -5.230186 0.777740 1.548500 7.114427 -2.458379 -6.058423 -2.997900 -0.234296 0.250417 0.000000 0.000000 0.000000 -8.925080 10.838367 2.381135 -59.152066 7.937883 11.315052 -4.378493 -29.525401 -0.020423 -12.520699 4.041606 -0.446285 -0.107644 -0.060357 -0.000000 0.000000 0.000000 0.000000 0.000000 0.000000 0.000000 11.325687 1.351674 2.689759 35.516262 26.597812 17.236532 2.006254 54.914813 0.027189 11.858024 8.208597 0.879909 -0.081335 -0.188874 0.000000 0.000000 0.000000 0.000000 0.000000 0.000000 0.000000 
-10.991040 16.789082 -1.201737 -15.110017 84.925659 3.168938 -9.338158 -0.333426 1.910796 -7.882511 -5.900058 -44.870781 -1.269147 1.141861 28.022937 1.355580 7.151717 0.262521 1.344400 0.000000 -30.321800 10.528978 -2.012060 -3.636412 2.013219 -11.220022 -5.661691 1.663370 -2.078446 28.888369 0.880385 10.534179 4.824813 1.873200 0.000001 -89.629500 -3.420127 0.576727 2.936788 -1.344658 0.794582 -2.207023 -5.263197 0.738877 1.488441 7.293820 -2.463691 -6.013710 -3.010679 -0.235411 0.258582 0.000000 0.000000 0.000000 -8.746740 10.546617 2.406798 -59.222960 7.841144 11.097966 -4.416812 -28.987616 -0.020451 -12.436202 4.137566 -0.453490 -0.108965 -0.059573 -0.000000 0.000000 0.000000 0.000000 0.000000 0.000000 0.000000 11.547508 1.300673 2.680614 35.993725 26.158873 17.345227 2.034529 54.581665 0.027058 11.705759 8.220754 0.869326 -0.076508 -0.187128 -0.000000 0.000000 0.000000 0.000000 0.000000 0.000000 0.000000 
-10.791650 16.784843 -1.211352 -8.565871 84.860259 9.338359 -9.463078 -0.362741 1.771549 -8.553625 -5.816737 -44.252398 -1.269857 1.220697 29.519100 1.441548 7.544544 -1.052126 1.207700 0.000001 -29.961801 10.622228 -2.044992 -3.777827 0.883115 -12.129228 -6.724632 1.361577 -2.397143 32.038071 0.807131 11.166014 7.300537 2.485600 -0.000000 -91.697400 -4.194459 0.467539 3.132691 -1.498775 0.720906 -2.184113 -5.300516 0.666134 1.434785 7.464852 -2.469012 -5.954982 -3.026734 -0.236953 0.270633 0.000000 0.000000 0.000000 -8.557560 10.234144 2.433286 -59.285950 7.683096 10.930055 -4.453756 -28.446961 -0.020381 -12.346746 4.238214 -0.460792 -0.110323 -0.058300 -0.000000 0.000000 0.000000 0.000000 0.000000 0.000000 0.000000 11.769219 1.224565 2.656546 36.547365 25.682510 17.489293 2.064346 54.220652 0.026806 11.558710 8.239508 0.859741 -0.071672 -0.184688 -0.000000 0.000000 0.000000 0.000000 0.000000 0.000000 0.000000 
-10.592436 16.784069 -1.221928 -3.525107 84.793648 14.046005 -9.541002 -0.386194 1.622964 -9.226279 -5.591525 -43.564830 -1.296546 1.263758 30.742876 1.513288 7.837451 -2.481258 1.025300 -0.000000 -29.949300 10.756373 -2.072080 -3.877772 -0.097175 -12.978633 -7.903648 1.047260 -2.687565 35.143638 0.658387 11.353818 10.084073 3.119300 0.000001 -93.066900 -4.823989 0.351873 3.296555 -1.626691 0.633786 -2.165328 -5.344938 0.579898 1.387411 7.621670 -2.474788 -5.882307 -3.045528 -0.238913 0.287043 0.000000 0.000000 0.000000 -8.371009 9.914192 2.455187 -59.337231 7.480684 10.801554 -4.486621 -27.933499 -0.020249 -12.254882 4.342353 -0.468190 -0.111573 -0.056737 -0.000000 0.000000 0.000000 0.000000 0.000000 0.000000 0.000000 11.981310 1.135258 2.619827 37.171575 25.170716 17.663835 2.095767 53.837519 0.026465 11.424366 8.263178 0.851556 -0.066937 -0.181637 -0.000000 0.000000 0.000000 0.000000 0.000000 0.000000 0.000000 
